/* XPM */
static char * Android_xpm[] = {
"13 16 32 1",
" 	c #D2E59C",
".	c #BCD76B",
"+	c #E9F2CE",
"@	c #FAFCF3",
"#	c #ABCD45",
"$	c #C7DE84",
"%	c #DDEBB5",
"&	c #F4F9E7",
"*	c #B6D45E",
"=	c #B0D152",
"-	c #EEF5DB",
";	c #D8E8A9",
">	c #CDE190",
",	c #E3EFC2",
"'	c #C1DB77",
")	c #BBD76A",
"!	c #AACD45",
"~	c #E8F1CD",
"{	c #F9FBF2",
"]	c #C6DD83",
"^	c #B5D35E",
"/	c #F3F8E6",
"(	c #EEF5D9",
"_	c #D2E49C",
":	c #DDEBB4",
"<	c #C1DA76",
"[	c #D7E7A8",
"}	c #B0D051",
"|	c #CCE18F",
"1	c #E2EEC1",
"2	c #A5CA39",
"3	c #FFFFFF",
"3333333333333",
"3333222223333",
"3332222222333",
"3332222222333",
"3322222222233",
"2222222222222",
"2222222222222",
"2222222222222",
"2222222222222",
"2222222222222",
"2222222222222",
"3322222222233",
"33@2222222%33",
"3333223223333",
"3333223223333",
"3333223223333"};
