/* XPM */
static char * bug_xpm[] = {
"16 16 115 2",
"  	c None",
". 	c #FFFFFF",
"+ 	c #EEEEEE",
"@ 	c #6B6B6B",
"# 	c #0E0E0E",
"$ 	c #000000",
"% 	c #020202",
"& 	c #292929",
"* 	c #E6E6E6",
"= 	c #F6F6F6",
"- 	c #C6C6C6",
"; 	c #E2E2E2",
"> 	c #DADADA",
", 	c #383838",
"' 	c #010101",
") 	c #0A0A0A",
"! 	c #B2B2B2",
"~ 	c #F3F3F3",
"{ 	c #CFCFCF",
"] 	c #D2D2D2",
"^ 	c #F5F5F5",
"/ 	c #6F6F6F",
"( 	c #777777",
"_ 	c #CECECE",
": 	c #E9E9E9",
"< 	c #979797",
"[ 	c #878787",
"} 	c #888888",
"| 	c #868686",
"1 	c #DCDCDC",
"2 	c #595959",
"3 	c #C2C2C2",
"4 	c #FAFAFA",
"5 	c #848484",
"6 	c #434343",
"7 	c #616161",
"8 	c #A9A9A9",
"9 	c #ACACAC",
"0 	c #AFAFAF",
"a 	c #A6A6A6",
"b 	c #A4A4A4",
"c 	c #ADADAD",
"d 	c #AEAEAE",
"e 	c #757575",
"f 	c #3E3E3E",
"g 	c #5B5B5B",
"h 	c #DDDDDD",
"i 	c #0B0B0B",
"j 	c #0F0F0F",
"k 	c #121212",
"l 	c #191919",
"m 	c #1A1A1A",
"n 	c #131313",
"o 	c #111111",
"p 	c #696969",
"q 	c #A3A3A3",
"r 	c #272727",
"s 	c #A2A2A2",
"t 	c #212121",
"u 	c #090909",
"v 	c #8B8B8B",
"w 	c #8A8A8A",
"x 	c #A5A5A5",
"y 	c #949494",
"z 	c #818181",
"A 	c #4B4B4B",
"B 	c #040404",
"C 	c #414141",
"D 	c #808080",
"E 	c #6E6E6E",
"F 	c #363636",
"G 	c #0C0C0C",
"H 	c #030303",
"I 	c #2F2F2F",
"J 	c #5C5C5C",
"K 	c #E1E1E1",
"L 	c #E0E0E0",
"M 	c #8C8C8C",
"N 	c #282828",
"O 	c #101010",
"P 	c #797979",
"Q 	c #DEDEDE",
"R 	c #D5D5D5",
"S 	c #4D4D4D",
"T 	c #2D2D2D",
"U 	c #A8A8A8",
"V 	c #EBEBEB",
"W 	c #7F7F7F",
"X 	c #666666",
"Y 	c #D6D6D6",
"Z 	c #A1A1A1",
"` 	c #1B1B1B",
" .	c #181818",
"..	c #A0A0A0",
"+.	c #4E4E4E",
"@.	c #343434",
"#.	c #505050",
"$.	c #8E8E8E",
"%.	c #3B3B3B",
"&.	c #787878",
"*.	c #3D3D3D",
"=.	c #474747",
"-.	c #FEFEFE",
";.	c #828282",
">.	c #535353",
",.	c #B9B9B9",
"'.	c #C5C5C5",
").	c #B4B4B4",
"!.	c #C1C1C1",
"~.	c #4A4A4A",
"{.	c #4F4F4F",
"].	c #FBFBFB",
"^.	c #B3B3B3",
"/.	c #D0D0D0",
"(.	c #E7E7E7",
". . . . + @ # $ $ % & * . . . . ",
"= - ; . > , ' $ $ $ ) ! . ~ { ] ",
"^ / ( _ : < [ [ } | } { 1 [ 2 3 ",
"4 5 6 7 8 9 0 a b c d 8 e f g h ",
". . 5 i j k k l m n k o $ p 4 . ",
". . q r $ $ $ } s t $ $ u v . . ",
". . 9 & $ $ $ w x t $ $ u y . . ",
"| z A o $ $ $ } s t $ $ B C D ( ",
"E 7 F G $ $ $ } s t $ $ H I J 2 ",
"K L M N $ $ $ } s t $ $ O P Q R ",
". . 3 S $ $ $ } s t $ $ T U . . ",
". . V W $ $ $ } s t $ $ X Y . . ",
". . U T ' $ $ | Z ` $ $  .... . ",
". - +.@.w #.n $.b F %.&.*.=.8 -.",
". ;.>.q . R z ,.'.$.).. !.~.{.= ",
"].^.{ . . . . . . . . . . /.x (."};
