/* XPM */
static char * C++_xpm[] = {
"16 16 82 1",
" 	c None",
".	c #9BBCE0",
"+	c #94B8DF",
"@	c #BED0E3",
"#	c #8AB1DA",
"$	c #5F97D1",
"%	c #6197D1",
"&	c #86AFDA",
"*	c #B5C9E0",
"=	c #6298D2",
"-	c #5E96D0",
";	c #82ADDA",
">	c #82ADDB",
",	c #5F97D0",
"'	c #6399D2",
")	c #84ADD9",
"!	c #84AEDA",
"~	c #659AD2",
"{	c #73A4D7",
"]	c #F3F7FB",
"^	c #FFFFFF",
"/	c #F4F8FC",
"(	c #78A7D8",
"_	c #669BD3",
":	c #4887BB",
"<	c #79A7D8",
"[	c #5F96D0",
"}	c #F4F7FB",
"|	c #B5CEEA",
"1	c #B2CCE8",
"2	c #95B9D7",
"3	c #00589B",
"4	c #1B68A4",
"5	c #79A8D8",
"6	c #83AEDB",
"7	c #B4CDE9",
"8	c #659BD4",
"9	c #4C8BC7",
"0	c #1666A5",
"a	c #4886B7",
"b	c #2671AA",
"c	c #5B93BE",
"d	c #84AEDB",
"e	c #A7C4E2",
"f	c #185996",
"g	c #004786",
"h	c #005095",
"i	c #4A89B9",
"j	c #1969A5",
"k	c #5B94BE",
"l	c #7AA8D9",
"m	c #5E95CF",
"n	c #F2F5F9",
"o	c #F9FAFC",
"p	c #668EB3",
"q	c #628BB2",
"r	c #FDFDFD",
"s	c #72A2C7",
"t	c #00579A",
"u	c #1C69A5",
"v	c #6191C1",
"w	c #084A87",
"x	c #265F94",
"y	c #EDF2F6",
"z	c #F3F6F9",
"A	c #316799",
"B	c #004583",
"C	c #20649C",
"D	c #4B76A0",
"E	c #003F7F",
"F	c #004080",
"G	c #33689A",
"H	c #366A9C",
"I	c #00407F",
"J	c #003C7D",
"K	c #4976A1",
"L	c #6D90B1",
"M	c #296193",
"N	c #003E7E",
"O	c #215B91",
"P	c #8CA4BA",
"Q	c #6185A6",
"                ",
"                ",
"       .+       ",
"     @#$%&*     ",
"    &=-;>,')    ",
"   !~{]^^/(_:   ",
"   <[}^|1^234   ",
"   56^7890abc   ",
"   5d^efghijk   ",
"   lmnopqrstu   ",
"   vwxy^^zABC   ",
"    DEFGHIJK    ",
"     LMFNOP     ",
"       QQ       ",
"                ",
"                "};
