/* XPM */
static char * C_xpm[] = {
"16 16 85 1",
" 	c None",
".	c #FFFFFF",
"+	c #EFEFEF",
"@	c #B4B4B4",
"#	c #828282",
"$	c #7E7E7E",
"%	c #A9A9A9",
"&	c #DEDEDE",
"*	c #FBFBFB",
"=	c #979797",
"-	c #252525",
";	c #090909",
">	c #070707",
",	c #1B1B1B",
"'	c #727272",
")	c #E2E2E2",
"!	c #878787",
"~	c #181818",
"{	c #000000",
"]	c #0B0B0B",
"^	c #666666",
"/	c #F5F5F5",
"(	c #E0E0E0",
"_	c #1C1C1C",
":	c #0A0A0A",
"<	c #5F5F5F",
"[	c #797979",
"}	c #303030",
"|	c #242424",
"1	c #ABABAB",
"2	c #818181",
"3	c #050505",
"4	c #898989",
"5	c #F2F2F2",
"6	c #B3B3B3",
"7	c #404040",
"8	c #101010",
"9	c #717171",
"0	c #383838",
"a	c #030303",
"b	c #1A1A1A",
"c	c #CDCDCD",
"d	c #F6F6F6",
"e	c #C2C2C2",
"f	c #9A9A9A",
"g	c #9E9E9E",
"h	c #BEBEBE",
"i	c #151515",
"j	c #010101",
"k	c #3C3C3C",
"l	c #DBDBDB",
"m	c #FDFDFD",
"n	c #FCFCFC",
"o	c #131313",
"p	c #353535",
"q	c #D9D9D9",
"r	c #313131",
"s	c #C6C6C6",
"t	c #F3F3F3",
"u	c #B1B1B1",
"v	c #919191",
"w	c #BDBDBD",
"x	c #7F7F7F",
"y	c #6F6F6F",
"z	c #DADADA",
"A	c #393939",
"B	c #7A7A7A",
"C	c #222222",
"D	c #8A8A8A",
"E	c #3F3F3F",
"F	c #A0A0A0",
"G	c #8E8E8E",
"H	c #1E1E1E",
"I	c #0C0C0C",
"J	c #626262",
"K	c #E6E6E6",
"L	c #343434",
"M	c #121212",
"N	c #171717",
"O	c #2A2A2A",
"P	c #767676",
"Q	c #FAFAFA",
"R	c #B8B8B8",
"S	c #8C8C8C",
"T	c #E8E8E8",
"...+@#$%&*......",
"..=-;>>>,').....",
".!~{{{{{{]^/....",
"(_{{:<[}{{|1....",
"23{{4)567{89....",
"0a{bc..defgh....",
"ij{kl....mnn....",
"oj{pq...m*......",
"ra{8s..tu2vw....",
"xa{{yz*uA{~B....",
"&C{{><DE{{_F....",
".GH{{{{{{IJK....",
"..vL~MMNOP).....",
"...QRGSuT.......",
"................",
"................"};
