/* XPM */
static char * C_xpm[] = {
"16 16 144 2",
"  	c None",
". 	c #F5F5F5",
"+ 	c #FDFDFD",
"@ 	c #FEFEFD",
"# 	c #FEE5E5",
"$ 	c #FEDEDE",
"% 	c #FECFCE",
"& 	c #FED5D5",
"* 	c #FED8D8",
"= 	c #FDD1D1",
"- 	c #FDC6C6",
"; 	c #FDFFFF",
"> 	c #FCFCFC",
", 	c #F4F4F4",
"' 	c #F8F8F8",
") 	c #E5E6EC",
"! 	c #E1E3E9",
"~ 	c #E2E3EA",
"{ 	c #E2E0E7",
"] 	c #E2D9E1",
"^ 	c #C5C3CA",
"/ 	c #D3CFD6",
"( 	c #CCC6CD",
"_ 	c #D6D4DA",
": 	c #E3E2E8",
"< 	c #E2E4EA",
"[ 	c #F8F8FA",
"} 	c #F9F9F9",
"| 	c #FFFFFF",
"1 	c #E5E5E5",
"2 	c #B9B9B8",
"3 	c #B5B5B4",
"4 	c #EFEFEE",
"5 	c #F7F7F7",
"6 	c #F3F3F3",
"7 	c #F3F3F4",
"8 	c #F8F7F5",
"9 	c #D0D5E8",
"0 	c #ACB6DC",
"a 	c #B4BDDF",
"b 	c #E5E7EF",
"c 	c #F5F5F4",
"d 	c #8393D4",
"e 	c #4E65C1",
"f 	c #7083CD",
"g 	c #6378C9",
"h 	c #546BC3",
"i 	c #D2D8EF",
"j 	c #CFD5EE",
"k 	c #596FC5",
"l 	c #8696D5",
"m 	c #F6F7FC",
"n 	c #B0BAE3",
"o 	c #C6B9D6",
"p 	c #FFDBD9",
"q 	c #FFA2A2",
"r 	c #FFC4C4",
"s 	c #FFF5F5",
"t 	c #F7F8F8",
"u 	c #CCD3ED",
"v 	c #8A9AD6",
"w 	c #FAFAFD",
"x 	c #C2C4E4",
"y 	c #D4C8DD",
"z 	c #FF8E8C",
"A 	c #FF8383",
"B 	c #FFF0F0",
"C 	c #FFDFDF",
"D 	c #F7FAFA",
"E 	c #FDFDFE",
"F 	c #7184CD",
"G 	c #4F67C2",
"H 	c #8191D3",
"I 	c #6F82CD",
"J 	c #5268C1",
"K 	c #C5C3DF",
"L 	c #FFC1C0",
"M 	c #FF7878",
"N 	c #FFADAD",
"O 	c #FFE4E4",
"P 	c #F7F9F9",
"Q 	c #CDD4F0",
"R 	c #A9B5E3",
"S 	c #ADB8E4",
"T 	c #E4E8F8",
"U 	c #FFF4F3",
"V 	c #FFF9F9",
"W 	c #BFBFBF",
"X 	c #9A9A9A",
"Y 	c #DADADA",
"Z 	c #C4C4C4",
"` 	c #CECECE",
" .	c #C1C1C1",
"..	c #A0A0A0",
"+.	c #CCCCCC",
"@.	c #ACACAC",
"#.	c #D4D4D4",
"$.	c #A3A3A3",
"%.	c #FAFAFA",
"&.	c #E1E1E1",
"*.	c #D2D2D2",
"=.	c #BEBEBE",
"-.	c #BBBBBB",
";.	c #EAEAEA",
">.	c #C0C0C0",
",.	c #CBCBCB",
"'.	c #B5B5B5",
").	c #E2E2E2",
"!.	c #D7D7D7",
"~.	c #F7F7F8",
"{.	c #E7E8EE",
"].	c #E0E1E7",
"^.	c #BCBDC3",
"/.	c #B5B6BC",
"(.	c #ACADB3",
"_.	c #C0C1C7",
":.	c #ADAFB5",
"<.	c #BFC1C7",
"[.	c #999A9F",
"}.	c #DFDFE6",
"|.	c #E2E3E9",
"1.	c #FCFCFD",
"2.	c #EAECF6",
"3.	c #BAC1E2",
"4.	c #C6CBE7",
"5.	c #C9CEE8",
"6.	c #BDC3E3",
"7.	c #B7BEE1",
"8.	c #DFE2F2",
"9.	c #FEFEFE",
"0.	c #F0F2F9",
"a.	c #EEEFF9",
"b.	c #EBEDF8",
"c.	c #F1F3FA",
"d.	c #F1F2FA",
"e.	c #EEF0F9",
"f.	c #E8EAF6",
"g.	c #F1F1F1",
"h.	c #E4E4E4",
"i.	c #E6E6E6",
"j.	c #E9E9E9",
"k.	c #E3E3E3",
"l.	c #F2F2F2",
"m.	c #F0F0F0",
". + @ @ # $ % & * = - ; + + > , ",
"' ) ! ~ { ] ^ / ( _ : < < ~ [ ' ",
"} | | | | | 1 2 3 4 | | | | | 5 ",
"' . 6 , 7 8 9 0 a b c 6 6 6 + ' ",
"} | | | | d e f g h i | | | | 5 ",
"} | | | j k l | m n o p q r s t ",
"} | | | u k v | w x y z A B C D ",
"} | | | E F G H I J K L M N O P ",
"} | | | | | Q R S T U V | | | 5 ",
"6 W X Y Z `  ...+.@.#.$.Z  .%.' ",
". 5 &.+.*.=.-.;.>.W ,.'.).!.+ 5 ",
"~.{.].^././.(._.:./.<.[.}.|.1.' ",
"} | | | | | | | | | | | | | | 5 ",
"} | | 2.3.4.5.4.6.7.6.8.9.| | 5 ",
"} | | | 0.a.b.c.d.e.f.| | | | 5 ",
"g.' ' ' , h.i.j.k.h.l.' ' ' ' m."};
