/* XPM */
static char * code_xpm[] = {
"16 11 128 2",
"  	c None",
". 	c #34BA8F",
"+ 	c #50B494",
"@ 	c #5C8379",
"# 	c #5C8178",
"$ 	c #5A8177",
"% 	c #5B8177",
"& 	c #5D8177",
"* 	c #5C8177",
"= 	c #5C8378",
"- 	c #50B594",
"; 	c #35BD91",
"> 	c #62645D",
", 	c #159FC9",
"' 	c #18A3CD",
") 	c #1AA3CD",
"! 	c #18A2CD",
"~ 	c #19A2CD",
"{ 	c #18A3CE",
"] 	c #169FC9",
"^ 	c #60635B",
"/ 	c #38BE93",
"( 	c #3DBF95",
"_ 	c #615D57",
": 	c #11B4E4",
"< 	c #14B6E7",
"[ 	c #16B6E7",
"} 	c #2BBAE5",
"| 	c #15B6E7",
"1 	c #27BBE7",
"2 	c #21B9E6",
"3 	c #13B3E4",
"4 	c #5B5B53",
"5 	c #3ABF94",
"6 	c #36BE92",
"7 	c #1CB7E6",
"8 	c #10B5E6",
"9 	c #0CB4E6",
"0 	c #08B2E6",
"a 	c #09B2E6",
"b 	c #07B2E6",
"c 	c #0BB2E5",
"d 	c #17B7E7",
"e 	c #13B3E5",
"f 	c #40C197",
"g 	c #615F58",
"h 	c #1AB8E8",
"i 	c #1CB8E8",
"j 	c #56CBED",
"k 	c #70D2F0",
"l 	c #8BDBF3",
"m 	c #9BE0F4",
"n 	c #A3E2F6",
"o 	c #C0ECF9",
"p 	c #2FBEE9",
"q 	c #1AB8E7",
"r 	c #12B3E5",
"s 	c #5C5B54",
"t 	c #39BF94",
"u 	c #615E58",
"v 	c #14B5E4",
"w 	c #19B8E8",
"x 	c #55C9ED",
"y 	c #7AD5F0",
"z 	c #64CFEF",
"A 	c #74D4F1",
"B 	c #B3E7F7",
"C 	c #85D9F3",
"D 	c #8FDDF3",
"E 	c #51C9EC",
"F 	c #18B8E7",
"G 	c #16B4E5",
"H 	c #625F58",
"I 	c #12B4E4",
"J 	c #15B7E7",
"K 	c #28BCE9",
"L 	c #13B6E7",
"M 	c #38C1EB",
"N 	c #50C8ED",
"O 	c #47C6EC",
"P 	c #5CCCEE",
"Q 	c #6AD0F0",
"R 	c #13B4E5",
"S 	c #5D5C55",
"T 	c #3DBE94",
"U 	c #615E57",
"V 	c #1AB6E6",
"W 	c #12B5E7",
"X 	c #10B5E7",
"Y 	c #37BD92",
"Z 	c #5E5D57",
"` 	c #12A4D0",
" .	c #15A7D3",
"..	c #1EA9D3",
"+.	c #30B0D6",
"@.	c #18A8D3",
"#.	c #16A8D4",
"$.	c #20A9D2",
"%.	c #14A4D0",
"&.	c #585A52",
"*.	c #3ABF95",
"=.	c #A2DFCD",
"-.	c #CACECD",
";.	c #BBC7CD",
">.	c #BCC8CD",
",.	c #BCC9CE",
"'.	c #BFCBCF",
").	c #A7B4B9",
"!.	c #A8B4B8",
"~.	c #A9B6BA",
"{.	c #BEC3C7",
"].	c #B1BEC6",
"^.	c #9FBFBC",
"/.	c #BDC8CD",
"(.	c #C8CCCC",
"_.	c #AAE2D1",
":.	c #ADDACC",
"<.	c #D2E0DD",
"[.	c #D1E0DD",
"}.	c #D0DFDC",
"|.	c #C1D0CC",
"1.	c #C1CFCC",
"2.	c #C2D0CC",
"3.	c #D0DAD6",
"4.	c #C9D9D6",
"5.	c #BCD8CF",
"6.	c #D3E0DE",
"7.	c #B3DBD0",
". + @ # $ $ % & & % $ $ * = - . ",
"; > , ' ' ) ) ! ' ' ~ ) { ] ^ / ",
"( _ : < [ } | < < | 1 2 < 3 4 5 ",
"6 _ : < 7 8 9 0 a b c d < e 4 f ",
"; g : h i j k l m n o p q r s t ",
"; u v w x y z A B C D E F G 4 t ",
"; H I J K L M N O P Q h | R S t ",
"T U : < < V L W W W X 7 < r 4 t ",
"Y Z `  ...+.@.#.#.#.$.$.#.%.&.*.",
"=.-.;.>.,.'.).!.!.~.{.].^./.(._.",
":.<.[.[.[.}.|.1.|.2.3.4.5.6.[.7."};
