/* XPM */
static char * edit_xpm[] = {
"16 16 109 2",
"  	c None",
". 	c #FFFFFF",
"+ 	c #EBEBEB",
"@ 	c #C6C6C6",
"# 	c #B9B9B9",
"$ 	c #BBBBBB",
"% 	c #BFBFBF",
"& 	c #DCDCDC",
"* 	c #FEFEFE",
"= 	c #E0E0E0",
"- 	c #D5D5D5",
"; 	c #4C4C4C",
"> 	c #3C3C3C",
", 	c #474747",
"' 	c #464646",
") 	c #434343",
"! 	c #AFAFAF",
"~ 	c #CBCBCB",
"{ 	c #666666",
"] 	c #4D4D4D",
"^ 	c #B0B0B0",
"/ 	c #656565",
"( 	c #696969",
"_ 	c #969696",
": 	c #A8A8A8",
"< 	c #A6A6A6",
"[ 	c #A5A5A5",
"} 	c #AAAAAA",
"| 	c #D1D1D1",
"1 	c #C7C7C7",
"2 	c #585858",
"3 	c #000000",
"4 	c #303030",
"5 	c #191919",
"6 	c #FDFDFD",
"7 	c #A4A4A4",
"8 	c #838383",
"9 	c #8B8B8B",
"0 	c #404040",
"a 	c #111111",
"b 	c #DDDDDD",
"c 	c #F0F0F0",
"d 	c #242424",
"e 	c #5E5E5E",
"f 	c #9A9A9A",
"g 	c #131313",
"h 	c #D9D9D9",
"i 	c #F8F8F8",
"j 	c #8D8D8D",
"k 	c #393939",
"l 	c #444444",
"m 	c #2B2B2B",
"n 	c #010101",
"o 	c #D8D8D8",
"p 	c #F9F9F9",
"q 	c #282828",
"r 	c #6D6D6D",
"s 	c #3B3B3B",
"t 	c #2F2F2F",
"u 	c #BDBDBD",
"v 	c #FAFAFA",
"w 	c #B6B6B6",
"x 	c #1C1C1C",
"y 	c #636363",
"z 	c #343434",
"A 	c #B4B4B4",
"B 	c #F4F4F4",
"C 	c #141414",
"D 	c #B5B5B5",
"E 	c #C8C8C8",
"F 	c #1D1D1D",
"G 	c #929292",
"H 	c #E5E5E5",
"I 	c #F7F7F7",
"J 	c #121212",
"K 	c #020202",
"L 	c #606060",
"M 	c #ABABAB",
"N 	c #3F3F3F",
"O 	c #9C9C9C",
"P 	c #B3B3B3",
"Q 	c #A9A9A9",
"R 	c #D7D7D7",
"S 	c #DEDEDE",
"T 	c #414141",
"U 	c #2E2E2E",
"V 	c #767676",
"W 	c #ADADAD",
"X 	c #787878",
"Y 	c #D2D2D2",
"Z 	c #EAEAEA",
"` 	c #9F9F9F",
" .	c #9E9E9E",
"..	c #E9E9E9",
"+.	c #F2F2F2",
"@.	c #7F7F7F",
"#.	c #E8E8E8",
"$.	c #888888",
"%.	c #3E3E3E",
"&.	c #6C6C6C",
"*.	c #848484",
"=.	c #868686",
"-.	c #8A8A8A",
";.	c #878787",
">.	c #818181",
",.	c #323232",
"'.	c #1F1F1F",
").	c #222222",
"!.	c #898989",
". . . . . . . . . . . . . . . . ",
". + @ # $ $ $ $ $ # % & . * = . ",
"- ; > , , ' ' ' ' ' ) ! ~ { ] ^ ",
"/ ( _ : < < < < < [ } | 1 2 3 4 ",
"5 ~ . . . . . . . . 6 7 8 9 0 3 ",
"a b . . . . . . . c _ > d e f 2 ",
"g h . . . . . . i j k l m n / 6 ",
"g o . . . . . p 7 q r s 3 t u . ",
"g o . . . . v w x y d 3 z A . * ",
"g o . . . B } q m C 3 z ^ . . . ",
"g o . . . @ 0 D E 5 F G H I . . ",
"J h . . . # K L M N O P Q R . . ",
"J S . . . - T U V 7 . W X Y . . ",
"t < = Z + R [ `  ...+.@.X #.. . ",
"$.%.&.$.*.=.-.-.9 ;.X T >.. . . ",
". 8 ,.'.).).).).).'.q !.... . . "};
