/* XPM */
static char * Go_xpm[] = {
"16 16 143 2",
"  	c None",
". 	c #B5EDFC",
"+ 	c #B9F0FD",
"@ 	c #BEF3FD",
"# 	c #C5F5FC",
"$ 	c #A4E1F5",
"% 	c #97E1FA",
"& 	c #98E4FD",
"* 	c #9FE7FD",
"= 	c #A9EDFD",
"- 	c #B6F1FE",
"; 	c #C2F6FE",
"> 	c #C8F8FC",
", 	c #80DBF4",
"' 	c #7BCEE7",
") 	c #87D5EE",
"! 	c #A2E1F5",
"~ 	c #A3E4F9",
"{ 	c #95E3FC",
"] 	c #9EE7FF",
"^ 	c #ADECFD",
"/ 	c #C0F4FD",
"( 	c #B5F3FF",
"_ 	c #A4ECFC",
": 	c #93E7FB",
"< 	c #92D6ED",
"[ 	c #BCE0EC",
"} 	c #F6F7F8",
"| 	c #FFFEFE",
"1 	c #A5E4F8",
"2 	c #9CE1F8",
"3 	c #F1F5F7",
"4 	c #FFFFFF",
"5 	c #CCF3FC",
"6 	c #AEEFFE",
"7 	c #8ED5EC",
"8 	c #F0F0F3",
"9 	c #727373",
"0 	c #B1B1B1",
"a 	c #C3EAF6",
"b 	c #ABDAEC",
"c 	c #D0D4D7",
"d 	c #494644",
"e 	c #F8FAFB",
"f 	c #ABEDFD",
"g 	c #90D5EC",
"h 	c #CAE4F0",
"i 	c #AEB1B5",
"j 	c #DBE2E6",
"k 	c #77CBE6",
"l 	c #7ECFEA",
"m 	c #DAE1E6",
"n 	c #898B8D",
"o 	c #DDF1F9",
"p 	c #ACECFD",
"q 	c #95D7ED",
"r 	c #7BCDE8",
"s 	c #91D3EA",
"t 	c #82CCE5",
"u 	c #4D3A37",
"v 	c #736561",
"w 	c #8BD7F1",
"x 	c #A5E0F5",
"y 	c #93E3FB",
"z 	c #ADECFE",
"A 	c #93D7EC",
"B 	c #82D4ED",
"C 	c #82D6F2",
"D 	c #7BD1ED",
"E 	c #D1DCE1",
"F 	c #B0D5E2",
"G 	c #8FDFF8",
"H 	c #92E2FC",
"I 	c #9AE6FE",
"J 	c #AFEDFF",
"K 	c #8FD6ED",
"L 	c #83D5EF",
"M 	c #83D7F3",
"N 	c #84DAF5",
"O 	c #86DAF5",
"P 	c #8EDEF7",
"Q 	c #92E2FB",
"R 	c #9BE7FF",
"S 	c #ADEDFE",
"T 	c #8BD7EF",
"U 	c #82D4EF",
"V 	c #84D8F4",
"W 	c #86DBF4",
"X 	c #8CDDF7",
"Y 	c #8EDFF8",
"Z 	c #93E3FC",
"` 	c #9BE7FE",
" .	c #A9ECFD",
"..	c #C8C9CB",
"+.	c #8BD8F1",
"@.	c #82D6EF",
"#.	c #83D9F4",
"$.	c #85DBF6",
"%.	c #87DDF6",
"&.	c #8ADEF8",
"*.	c #90E1FA",
"=.	c #97E4FD",
"-.	c #9CE8FF",
";.	c #9FE4F9",
">.	c #8DD8F1",
",.	c #84D5F0",
"'.	c #8ADFF8",
").	c #8FE0FB",
"!.	c #93E3FD",
"~.	c #9CE7FE",
"{.	c #ABECFE",
"].	c #8FD8F2",
"^.	c #84D6F1",
"/.	c #85D9F5",
"(.	c #85DAF4",
"_.	c #86DCF5",
":.	c #9EE8FE",
"<.	c #AEECFE",
"[.	c #99DAF2",
"}.	c #81D4EE",
"|.	c #81D6F1",
"1.	c #84D9F5",
"2.	c #86DBF6",
"3.	c #8BDCF7",
"4.	c #94E2FC",
"5.	c #9DE6FE",
"6.	c #BBEFFC",
"7.	c #80D1EB",
"8.	c #79D1EC",
"9.	c #7BD2EE",
"0.	c #7FD5F1",
"a.	c #85DAF5",
"b.	c #8ADCF7",
"c.	c #93E2FA",
"d.	c #A0E5FE",
"e.	c #C0B3B5",
"f.	c #6CBEDC",
"g.	c #77C8E4",
"h.	c #72CCEB",
"i.	c #75CCE9",
"j.	c #7FCFEB",
"k.	c #7CBED6",
"l.	c #E8D2CF",
"            . + @ #             ",
"        $ % & * = - ; >         ",
"    , ' ) ! ~ { ] ^ / ( _ :     ",
"      < [ } | 1 2 3 4 5 6       ",
"      7 8 9 0 a b c d e f       ",
"      g h i j k l m n o p       ",
"      q r s t u v w x y z       ",
"      A B C D E F G H I J       ",
"      K L M N O P G Q R S       ",
"      T U V N W X Y Z `  .      ",
"    ..+.@.#.$.%.&.*.=.-.;.      ",
"      >.,.N $.%.'.).!.~.{.      ",
"      ].^./.(._.&.).H :.<.      ",
"      [.}.|.1.2.3.).4.5.6.      ",
"        7.8.9.0.a.b.c.d.        ",
"        e.f.g.h.i.j.k.l.        "};
