/* XPM */
static char * JavaScript_xpm[] = {
"16 16 105 2",
"  	c None",
". 	c #D6BA32",
"+ 	c #D9BD33",
"@ 	c #F8D43C",
"# 	c #F9D53C",
"$ 	c #FAD63D",
"% 	c #E8C737",
"& 	c #D5B932",
"* 	c #D6BA33",
"= 	c #D7BD3D",
"- 	c #DABE37",
"; 	c #FDDA41",
"> 	c #FFDC49",
", 	c #FFDC48",
"' 	c #FFDD46",
") 	c #E5C637",
"! 	c #D6B930",
"~ 	c #D9C149",
"{ 	c #EAE9E5",
"] 	c #E0CC6C",
"^ 	c #FDE479",
"/ 	c #FFFDF7",
"( 	c #FFFCEF",
"_ 	c #FFFDF2",
": 	c #FFF1AB",
"< 	c #E0C236",
"[ 	c #D9C24B",
"} 	c #ECEEF5",
"| 	c #E1CE71",
"1 	c #FDE57F",
"2 	c #FFFFFF",
"3 	c #FFF8DC",
"4 	c #FFF6D0",
"5 	c #FFF7D4",
"6 	c #FFEB8D",
"7 	c #DABD34",
"8 	c #FFFFFE",
"9 	c #FFE36E",
"0 	c #FFDB40",
"a 	c #FFDB41",
"b 	c #FFDB3F",
"c 	c #FFE267",
"d 	c #FFDB42",
"e 	c #FFDE51",
"f 	c #FCDA45",
"g 	c #FFFEF8",
"h 	c #FFFEF9",
"i 	c #F9DF71",
"j 	c #D6BA31",
"k 	c #FDE682",
"l 	c #FFF9DF",
"m 	c #FFFFFB",
"n 	c #F4DB69",
"o 	c #D7BD3C",
"p 	c #D7BB35",
"q 	c #D6B92E",
"r 	c #D9C14B",
"s 	c #E1CF76",
"t 	c #FDD93E",
"u 	c #FFDA40",
"v 	c #FFDA3D",
"w 	c #FFE05D",
"x 	c #FFFFFD",
"y 	c #F0D660",
"z 	c #D5B92D",
"A 	c #DDC968",
"B 	c #EDF0FD",
"C 	c #E8E2CA",
"D 	c #E4DBAD",
"E 	c #EBECEF",
"F 	c #E1CE75",
"G 	c #FDDC4D",
"H 	c #FFE98A",
"I 	c #FFF0AF",
"J 	c #FFF9DD",
"K 	c #FFFDF1",
"L 	c #ECD157",
"M 	c #D6BA30",
"N 	c #D8BD40",
"O 	c #E2D69B",
"P 	c #E9E7DA",
"Q 	c #EBEBEA",
"R 	c #EBEBEB",
"S 	c #FFFEF7",
"T 	c #FFF1AE",
"U 	c #E8CA42",
"V 	c #D5B82C",
"W 	c #D5B82B",
"X 	c #D9BF45",
"Y 	c #DCC868",
"Z 	c #DCC44C",
"` 	c #FDDF5A",
" .	c #FFE67C",
"..	c #FFDE55",
"+.	c #FFD937",
"@.	c #FFDA38",
"#.	c #E4C536",
"$.	c #FED93E",
"%.	c #FFDA3E",
"&.	c #DEC034",
"*.	c #D9BC33",
"=.	c #F0CF3A",
"-.	c #E7C837",
";.	c #DFC135",
">.	c #D4B832",
". . . . . . . . . . . . . . . . ",
". . . . . . . + @ # # # # $ % & ",
". . . . . * = - ; > , , > ' ) & ",
". . . . ! ~ { ] ^ / ( ( _ : < & ",
"  . . . ! [ } | 1 2 3 4 5 6 7 . ",
"  . . . ! [ } | 1 8 9 0 a b . . ",
"  . . . ! [ } | 1 8 c d e f .   ",
"  . . . ! [ } | 1 2 g g h i .   ",
"  . j . ! [ } | k 2 l 4 m n .   ",
"  j o p q r } s t u v w x y .   ",
"  z A B C D E F G H I J K L .   ",
"  M N O P Q R | 1 2 8 S T U .   ",
"  . j V W X Y Z `  ...+.@.#..   ",
"  . . . . . . + $.%.%.$.$ &..   ",
"    . . . . . *.=.-.;.*.>.&     ",
"            . . & .             "};
