/* XPM */
static char * Java_xpm[] = {
"16 16 95 2",
"  	c None",
". 	c #FFFFFF",
"+ 	c #D7D7D7",
"@ 	c #B4B4B4",
"# 	c #A3A3A3",
"$ 	c #9C9C9C",
"% 	c #CCCCCC",
"& 	c #3F3F3F",
"* 	c #E2E2E2",
"= 	c #FDFDFD",
"- 	c #AAAAAA",
"; 	c #4B4B4B",
"> 	c #7C7C7C",
", 	c #9F9F9F",
"' 	c #BEBEBE",
") 	c #FCFCFC",
"! 	c #B0B0B0",
"~ 	c #474747",
"{ 	c #787878",
"] 	c #595959",
"^ 	c #BDBDBD",
"/ 	c #616161",
"( 	c #939393",
"_ 	c #4C4C4C",
": 	c #686868",
"< 	c #A5A5A5",
"[ 	c #8B8B8B",
"} 	c #797979",
"| 	c #131313",
"1 	c #EDEDED",
"2 	c #878787",
"3 	c #DBDBDB",
"4 	c #151515",
"5 	c #B9B9B9",
"6 	c #696969",
"7 	c #A7A7A7",
"8 	c #F4F4F4",
"9 	c #BBBBBB",
"0 	c #868686",
"a 	c #DFDFDF",
"b 	c #B3B3B3",
"c 	c #6B6B6B",
"d 	c #676767",
"e 	c #F0F0F0",
"f 	c #F7F7F7",
"g 	c #484848",
"h 	c #3D3D3D",
"i 	c #464646",
"j 	c #4A4A4A",
"k 	c #555555",
"l 	c #E7E7E7",
"m 	c #D1D1D1",
"n 	c #6F6F6F",
"o 	c #D9D9D9",
"p 	c #9D9D9D",
"q 	c #6A6A6A",
"r 	c #9E9E9E",
"s 	c #8D8D8D",
"t 	c #949494",
"u 	c #D8D8D8",
"v 	c #C8C8C8",
"w 	c #565656",
"x 	c #5C5C5C",
"y 	c #979797",
"z 	c #D5D5D5",
"A 	c #C4C4C4",
"B 	c #ADADAD",
"C 	c #C5C5C5",
"D 	c #8C8C8C",
"E 	c #757575",
"F 	c #747474",
"G 	c #7B7B7B",
"H 	c #C3C3C3",
"I 	c #EBEBEB",
"J 	c #FAFAFA",
"K 	c #5E5E5E",
"L 	c #323232",
"M 	c #5D5D5D",
"N 	c #727272",
"O 	c #656565",
"P 	c #818181",
"Q 	c #848484",
"R 	c #E9E9E9",
"S 	c #FEFEFE",
"T 	c #D0D0D0",
"U 	c #828282",
"V 	c #5B5B5B",
"W 	c #4F4F4F",
"X 	c #4E4E4E",
"Y 	c #515151",
"Z 	c #4D4D4D",
"` 	c #888888",
" .	c #DCDCDC",
"..	c #FBFBFB",
"+.	c #F9F9F9",
". . . . . . . + @ . . . . . . . ",
". . . . . . . # $ . . . . . . . ",
". . . . . . % & * * = . . . . . ",
". . . . . - ; > , ' ) . . . . . ",
". . . . ! ~ { ] ^ . . . . . . . ",
". . . . / ( _ : . . . . . . . . ",
". . . . < [ } | 1 . . . . . . . ",
". . . . . 2 3 4 % . = . . . . . ",
". ) 5 6 7 8 9 0 a b c d e . . . ",
". f , g h i j k { l m n o . . . ",
". . . p q r p s t u s ! . . . . ",
". . . v ; _ w x y z 1 . . . . . ",
"= A B C D E F G H . I z . . . . ",
"J K L M N q O 6 P Q N D R . . . ",
"S R T U V W X Y Z W `  .= . . . ",
". . . ..J +.+.+.+.+...S . . . . "};
