/* XPM */
static char * Org_mode_xpm[] = {
"16 16 123 2",
"  	c None",
". 	c #3A332C",
"+ 	c #4C433A",
"@ 	c #4E433A",
"# 	c #324842",
"$ 	c #63756A",
"% 	c #806E60",
"& 	c #325E5A",
"* 	c #515044",
"= 	c #7A513D",
"- 	c #746858",
"; 	c #686F63",
"> 	c #603324",
", 	c #8D3922",
"' 	c #717E6D",
") 	c #6B9686",
"! 	c #758776",
"~ 	c #698273",
"{ 	c #6A9587",
"] 	c #6D9D8C",
"^ 	c #3D584F",
"/ 	c #2D4039",
"( 	c #2C130C",
"_ 	c #9D5E4B",
": 	c #B97661",
"< 	c #904C36",
"[ 	c #9B4127",
"} 	c #897F6A",
"| 	c #77B2A0",
"1 	c #74AC9B",
"2 	c #6FA394",
"3 	c #75A897",
"4 	c #73A493",
"5 	c #618A7C",
"6 	c #5D8577",
"7 	c #78AC9A",
"8 	c #669183",
"9 	c #764435",
"0 	c #A96853",
"a 	c #AF6851",
"b 	c #A85438",
"c 	c #994D32",
"d 	c #7C5C48",
"e 	c #718F7E",
"f 	c #7AB3A2",
"g 	c #7CB19F",
"h 	c #79AD9C",
"i 	c #7BAF9E",
"j 	c #73A595",
"k 	c #5F897D",
"l 	c #4D6E64",
"m 	c #B7705A",
"n 	c #B26C56",
"o 	c #A75A40",
"p 	c #A24B2F",
"q 	c #836A54",
"r 	c #6E7160",
"s 	c #6A8576",
"t 	c #649385",
"u 	c #628C7E",
"v 	c #6C9A8B",
"w 	c #7DB2A0",
"x 	c #79AD9B",
"y 	c #6B9A8C",
"z 	c #4A6E66",
"A 	c #364F48",
"B 	c #7F4937",
"C 	c #AE6B55",
"D 	c #AB6048",
"E 	c #A55237",
"F 	c #904931",
"G 	c #778775",
"H 	c #71A999",
"I 	c #638E80",
"J 	c #4C6B61",
"K 	c #46655A",
"L 	c #804936",
"M 	c #A85F48",
"N 	c #A55439",
"O 	c #9D472C",
"P 	c #7C634F",
"Q 	c #729483",
"R 	c #74A897",
"S 	c #5E887A",
"T 	c #733B28",
"U 	c #A04D32",
"V 	c #9C4B30",
"W 	c #87513A",
"X 	c #76917F",
"Y 	c #70A392",
"Z 	c #76A898",
"` 	c #659082",
" .	c #53776B",
"..	c #97482F",
"+.	c #84553F",
"@.	c #748473",
"#.	c #75A090",
"$.	c #77AA99",
"%.	c #73A393",
"&.	c #608A7C",
"*.	c #567B6F",
"=.	c #5B2D1E",
"-.	c #6B8271",
";.	c #6E9989",
">.	c #75A998",
",.	c #78AC9B",
"'.	c #6D9C8C",
").	c #5E8779",
"!.	c #527469",
"~.	c #3D564E",
"{.	c #48685D",
"].	c #6B9A8B",
"^.	c #76A998",
"/.	c #74A797",
"(.	c #77AB9A",
"_.	c #6D9B8C",
":.	c #659183",
"<.	c #5B8274",
"[.	c #5B8174",
"}.	c #415D54",
"|.	c #3E5951",
"1.	c #4C6C61",
"2.	c #5A8174",
"                      .         ",
"                      +         ",
"                    @           ",
"            #     $ %           ",
"            & * = - ;           ",
"        > , ' ) ! ~ { ] ^ /     ",
"  ( _ : < [ } | 1 2 3 4 5 6 7 8 ",
"  9 0 a b c d e f g h h i j k l ",
"  m n o p q r s t u v w x y z A ",
"B C D E F G H I J K             ",
"L M N O P Q R S                 ",
"T U V W X Y Z `  .              ",
"  ..+.@.#.$.x %.&.*.            ",
"  =.-.;.>.,.$.,.'.).!.~.        ",
"    {.].^./.(.4 _.:.<.[.        ",
"        }.|.          1.2.      "};
