/* XPM */
static char * PHP_xpm[] = {
"16 16 84 1",
" 	c None",
".	c #391F5A",
"+	c #3C2160",
"@	c #38205A",
"#	c #321C50",
"$	c #2B1944",
"%	c #361F57",
"&	c #3C2260",
"*	c #39215C",
"=	c #331D52",
"-	c #291643",
";	c #797184",
">	c #371F58",
",	c #3B215E",
"'	c #371F57",
")	c #2F1A4B",
"!	c #716482",
"~	c #9F99A6",
"{	c #3D2261",
"]	c #412467",
"^	c #3C2261",
"/	c #4A2976",
"(	c #331B53",
"_	c #261341",
":	c #2A1843",
"<	c #492B74",
"[	c #5A358D",
"}	c #412568",
"|	c #4C2B78",
"1	c #44276C",
"2	c #502E7E",
"3	c #492A73",
"4	c #341D53",
"5	c #4F2E7B",
"6	c #5B388E",
"7	c #402466",
"8	c #3A205E",
"9	c #5C388F",
"0	c #39205D",
"a	c #553384",
"b	c #59368A",
"c	c #3B215F",
"d	c #39205B",
"e	c #3F2464",
"f	c #44286C",
"g	c #3E2363",
"h	c #5A388A",
"i	c #4A2C74",
"j	c #361F58",
"k	c #39205C",
"l	c #3A205D",
"m	c #53337F",
"n	c #482B70",
"o	c #371F59",
"p	c #361D58",
"q	c #2F1555",
"r	c #321956",
"s	c #351A59",
"t	c #331859",
"u	c #371C5C",
"v	c #361E56",
"w	c #361E57",
"x	c #5E4C77",
"y	c #C8C5CB",
"z	c #A79FB3",
"A	c #9F96AD",
"B	c #A69DB3",
"C	c #978CA7",
"D	c #3A1F5F",
"E	c #351E54",
"F	c #351E55",
"G	c #5F4E78",
"H	c #8B809B",
"I	c #A098AC",
"J	c #ACA5B6",
"K	c #ABA4B7",
"L	c #483068",
"M	c #3B2160",
"N	c #321D51",
"O	c #372056",
"P	c #392159",
"Q	c #3C255C",
"R	c #3D245E",
"S	c #3E265F",
"                ",
"                ",
"   .+++@#$      ",
"   %+&+*=-;     ",
"   >&+&,')!~    ",
"   >+{]+^/(_:   ",
"   ><[}+|1234   ",
"   %567890abc   ",
"   >defgh&i8+   ",
"   j@klmn+&+&   ",
"   %opqrstu&+   ",
"   vwxyzABCD+   ",
"   EFGHIJKLcM   ",
"   NNOPQRSlcc   ",
"                ",
"                "};
