/* XPM */
static char * Python_xpm[] = {
"16 16 104 2",
"  	c None",
". 	c #B5CDE1",
"+ 	c #5D94C0",
"@ 	c #538CB8",
"# 	c #4F86B3",
"$ 	c #5E90B8",
"% 	c #B9CAD7",
"& 	c #FFFFFF",
"* 	c #3E7BAD",
"= 	c #3F7BAB",
"- 	c #3A77A6",
"; 	c #6192B6",
"> 	c #8EB3D1",
", 	c #81A9CA",
"' 	c #7AA3C5",
") 	c #3977A7",
"! 	c #3573A2",
"~ 	c #5A8CB2",
"{ 	c #6FA0C8",
"] 	c #4C87B7",
"^ 	c #4B85B3",
"/ 	c #4780AF",
"( 	c #427CAB",
"_ 	c #326F9F",
": 	c #4E83B5",
"< 	c #FFF188",
"[ 	c #FBEC7F",
"} 	c #F3ECCA",
"| 	c #8AB2D0",
"1 	c #4986B7",
"2 	c #4581B2",
"3 	c #417DAC",
"4 	c #3B78A9",
"5 	c #3674A3",
"6 	c #3271A0",
"7 	c #306C9C",
"8 	c #4F85B8",
"9 	c #FFED7C",
"0 	c #FBE568",
"a 	c #F5E595",
"b 	c #5F95BF",
"c 	c #4682B3",
"d 	c #427DAD",
"e 	c #3373A5",
"f 	c #588DBE",
"g 	c #568BBC",
"h 	c #5387B8",
"i 	c #5387BA",
"j 	c #C5D0BA",
"k 	c #FDE562",
"l 	c #FCE05E",
"m 	c #FDE57A",
"n 	c #5E92BC",
"o 	c #427EAE",
"p 	c #3473A6",
"q 	c #D6DEC8",
"r 	c #FFEF82",
"s 	c #FFEF80",
"t 	c #FFEA74",
"u 	c #FDE360",
"v 	c #FCDF5A",
"w 	c #FCDC52",
"x 	c #FEE16E",
"y 	c #83A9C7",
"z 	c #3E7BAA",
"A 	c #558BBD",
"B 	c #FEF085",
"C 	c #FBEB75",
"D 	c #FBE86F",
"E 	c #FCE567",
"F 	c #FCE15F",
"G 	c #FCDD57",
"H 	c #FCDB4F",
"I 	c #FDD743",
"J 	c #F2DA7F",
"K 	c #6897BA",
"L 	c #76A1CB",
"M 	c #FEEE81",
"N 	c #FBE76C",
"O 	c #FCE363",
"P 	c #FDE67E",
"Q 	c #FDE477",
"R 	c #FDE16D",
"S 	c #FEE069",
"T 	c #FEDE67",
"U 	c #DDD2AA",
"V 	c #FAE77B",
"W 	c #FCE260",
"X 	c #FCDE58",
"Y 	c #FDE16A",
"Z 	c #FDDC5B",
"` 	c #FEE480",
" .	c #FCE577",
"..	c #FCDD55",
"+.	c #FCDA4D",
"@.	c #FDD63C",
"#.	c #FEFAEA",
"$.	c #FDE074",
"%.	c #E3DBBD",
"&.	c #F3DC7E",
"*.	c #FEDD5D",
"=.	c #FEDC59",
"-.	c #F4D975",
";.	c #E1D5A6",
"                                ",
"                                ",
"          . + @ # $ %           ",
"          + & * = - ;           ",
"          > , ' ) ! ~           ",
"      { ] ^ / ( ! _ : < [ }     ",
"    | 1 2 3 4 5 6 7 8 9 0 a     ",
"    b c d e f g h i j k l m     ",
"    n o p q r s 9 t u v w x     ",
"    y z A B C D E F G H I J     ",
"      K L M N O P Q R S T U     ",
"          V W X Y Z `           ",
"           ...+.@.#.$.          ",
"          %.&.*.=.-.;.          ",
"                                ",
"                                "};
