/* XPM */
static char * Python_xpm[] = {
"32 32 349 2",
"  	c None",
". 	c #DEE6ED",
"+ 	c #9ABCD8",
"@ 	c #74A2C8",
"# 	c #6196BE",
"$ 	c #5D92BB",
"% 	c #5B8FB9",
"& 	c #5C8FB8",
"* 	c #6C9ABE",
"= 	c #9BB9D1",
"- 	c #DBE1E5",
"; 	c #CEDDEA",
"> 	c #538FBF",
", 	c #4988B9",
"' 	c #4785B6",
") 	c #4683B4",
"! 	c #4581B2",
"~ 	c #437EAE",
"{ 	c #407CAC",
"] 	c #3E7AAA",
"^ 	c #3977A8",
"/ 	c #6E9BBE",
"( 	c #BFCBD5",
"_ 	c #81ACCE",
": 	c #528DBD",
"< 	c #F5F9FC",
"[ 	c #CBDCE9",
"} 	c #4682B2",
"| 	c #417DAC",
"1 	c #3E7AAB",
"2 	c #3B79A8",
"3 	c #3976A6",
"4 	c #2B6D9E",
"5 	c #A1BDD1",
"6 	c #72A2C7",
"7 	c #5991BD",
"8 	c #EBF1F7",
"9 	c #C2D6E5",
"0 	c #4C85B3",
"a 	c #407CAD",
"b 	c #3F7BAB",
"c 	c #3C79A9",
"d 	c #3674A4",
"e 	c #2C6C9E",
"f 	c #90B2CC",
"g 	c #6C9DC3",
"h 	c #3E7DB1",
"i 	c #558CB9",
"j 	c #4F86B4",
"k 	c #3574A8",
"l 	c #3775A7",
"m 	c #3B78A8",
"n 	c #3A77A7",
"o 	c #3472A2",
"p 	c #2B6B9D",
"q 	c #8FB1CB",
"r 	c #FFFFF9",
"s 	c #CDDDEA",
"t 	c #B7CEE2",
"u 	c #B4CCE0",
"v 	c #B3CBDF",
"w 	c #B6CDDF",
"x 	c #A8C3D9",
"y 	c #447EAC",
"z 	c #3775A4",
"A 	c #3573A2",
"B 	c #3371A1",
"C 	c #28699B",
"D 	c #8BAEC8",
"E 	c #D7DCEC",
"F 	c #B4CDE2",
"G 	c #6C9EC7",
"H 	c #5B92BE",
"I 	c #5D92BD",
"J 	c #5F93BD",
"K 	c #5D91BB",
"L 	c #598DB7",
"M 	c #578BB5",
"N 	c #5287B2",
"O 	c #326F9F",
"P 	c #276798",
"Q 	c #85AACC",
"R 	c #F4EDA4",
"S 	c #FAEB82",
"T 	c #FAEC84",
"U 	c #FBF0A5",
"V 	c #ECE8D5",
"W 	c #A0C1DB",
"X 	c #4A88BB",
"Y 	c #4B88B9",
"Z 	c #4885B6",
"` 	c #4580B1",
" .	c #3D79AA",
"..	c #3A78A8",
"+.	c #3875A5",
"@.	c #2F6D9C",
"#.	c #266697",
"$.	c #85A9CD",
"%.	c #F6ED9A",
"&.	c #FBEB74",
"*.	c #FBEA72",
"=.	c #FBE76A",
"-.	c #FCEFA7",
";.	c #D9E3EA",
">.	c #4C8BBC",
",.	c #4B88BA",
"'.	c #4886B7",
").	c #4783B4",
"!.	c #4582B2",
"~.	c #3D7AAB",
"{.	c #3876A5",
"].	c #3573A3",
"^.	c #3372A1",
"/.	c #3270A0",
"(.	c #306D9D",
"_.	c #2F6B9B",
":.	c #266597",
"<.	c #85AACE",
"[.	c #F6EC99",
"}.	c #FBE970",
"|.	c #FBE76D",
"1.	c #FBE568",
"2.	c #FEE874",
"3.	c #EBE4C1",
"4.	c #A3C2DB",
"5.	c #4D8ABA",
"6.	c #4784B4",
"7.	c #4681B2",
"8.	c #437FAF",
"9.	c #417DAD",
"0.	c #3876A6",
"a.	c #3574A4",
"b.	c #3472A1",
"c.	c #306E9D",
"d.	c #2E6B9B",
"e.	c #236396",
"f.	c #9BBAD7",
"g.	c #F8EA89",
"h.	c #FBE66B",
"i.	c #FCE463",
"j.	c #FDE158",
"k.	c #F3E9BA",
"l.	c #7FAACC",
"m.	c #4A87B8",
"n.	c #4784B5",
"o.	c #4682B3",
"p.	c #447FB0",
"q.	c #3F7AAB",
"r.	c #3A77A8",
"s.	c #3271A3",
"t.	c #2E6E9F",
"u.	c #2A6A9C",
"v.	c #286899",
"w.	c #256597",
"x.	c #4E83B2",
"y.	c #DBE0CB",
"z.	c #FCE871",
"A.	c #FCE565",
"B.	c #FCE362",
"C.	c #FCE15E",
"D.	c #FCDE53",
"E.	c #FCEDA9",
"F.	c #6C9CC3",
"G.	c #4885B5",
"H.	c #4480B0",
"I.	c #427DAD",
"J.	c #3675A6",
"K.	c #437EAD",
"L.	c #83AACE",
"M.	c #92B5D6",
"N.	c #90B3D5",
"O.	c #8FB2D3",
"P.	c #8EB0D2",
"Q.	c #8DB0D2",
"R.	c #8EB0D3",
"S.	c #A0BDD8",
"T.	c #DBE0C8",
"U.	c #FBE982",
"V.	c #FCE464",
"W.	c #FCE260",
"X.	c #FCE05D",
"Y.	c #FCDE59",
"Z.	c #FCDC4E",
"`.	c #FFEB97",
" +	c #6C9BC2",
".+	c #4783B3",
"++	c #4580B0",
"@+	c #427EAE",
"#+	c #407BAB",
"$+	c #3775A6",
"%+	c #6394BC",
"&+	c #E6EBE2",
"*+	c #F4ECA2",
"=+	c #F7EC93",
"-+	c #F6EC93",
";+	c #F6EC94",
">+	c #F6EB92",
",+	c #F6EA90",
"'+	c #F6E98D",
")+	c #F9E883",
"!+	c #FDE76F",
"~+	c #FCE363",
"{+	c #FCE25F",
"]+	c #FCDF5B",
"^+	c #FCDE57",
"/+	c #FCDC52",
"(+	c #FCD948",
"_+	c #FFE990",
":+	c #7DA6C8",
"<+	c #3B78A9",
"[+	c #427DAE",
"}+	c #E3E9E2",
"|+	c #FBEC7B",
"1+	c #FBEB75",
"2+	c #FBEA74",
"3+	c #FBE669",
"4+	c #FCE465",
"5+	c #FCE261",
"6+	c #FCE15D",
"7+	c #FCDF59",
"8+	c #FCDD55",
"9+	c #FCDC51",
"0+	c #FCDA4C",
"a+	c #FDD740",
"b+	c #FFEA9C",
"c+	c #A0BDD5",
"d+	c #407DAC",
"e+	c #3D7AAA",
"f+	c #3473A5",
"g+	c #7DA6CC",
"h+	c #F2ECA7",
"i+	c #FBEA73",
"j+	c #FBE86F",
"k+	c #FBE66C",
"l+	c #FBE567",
"m+	c #FCDF5C",
"n+	c #FCDE58",
"o+	c #FCDD54",
"p+	c #FCDB4F",
"q+	c #FCD94A",
"r+	c #FDD845",
"s+	c #FED63B",
"t+	c #F2E3AA",
"u+	c #CEDAE2",
"v+	c #4680AF",
"w+	c #3070A2",
"x+	c #89AED2",
"y+	c #F4EC99",
"z+	c #FBE972",
"A+	c #FBE76E",
"B+	c #FBE66A",
"C+	c #FCE566",
"D+	c #FCDF5A",
"E+	c #FCDD56",
"F+	c #FCDA4D",
"G+	c #FDD849",
"H+	c #FDD744",
"I+	c #FDD53D",
"J+	c #FFDC58",
"K+	c #E0D5B2",
"L+	c #94B4CE",
"M+	c #3474A6",
"N+	c #3171A2",
"O+	c #27699C",
"P+	c #82A9CE",
"Q+	c #F4EB99",
"R+	c #FBE76C",
"S+	c #FCE568",
"T+	c #FCE15A",
"U+	c #FCDF56",
"V+	c #FCDD52",
"W+	c #FCDB4E",
"X+	c #FCDA49",
"Y+	c #FCD845",
"Z+	c #FDD53C",
"`+	c #FDD437",
" @	c #FFD539",
".@	c #F7E18F",
"+@	c #A6BDCF",
"@@	c #8FB3CE",
"#@	c #86ABC9",
"$@	c #B9D0E8",
"%@	c #F7ED99",
"&@	c #FCE567",
"*@	c #FCE365",
"=@	c #FDEC9C",
"-@	c #FEECA1",
";@	c #FEEC9E",
">@	c #FDEB9B",
",@	c #FEEA9A",
"'@	c #FEE891",
")@	c #FFEA92",
"!@	c #FFE890",
"~@	c #F5E2A0",
"{@	c #CDC7B0",
"]@	c #F8E98E",
"^@	c #FBE56A",
"/@	c #FCE361",
"(@	c #FCE05E",
"_@	c #FDE786",
":@	c #FDE888",
"<@	c #FDE686",
"[@	c #FEE582",
"}@	c #FEE37B",
"|@	c #FFF1B7",
"1@	c #FAE98A",
"2@	c #FCE05C",
"3@	c #FCDC53",
"4@	c #FDDA4A",
"5@	c #FDD848",
"6@	c #FDD847",
"7@	c #FDD336",
"8@	c #FFE894",
"9@	c #FBE887",
"0@	c #FDD949",
"a@	c #FDD844",
"b@	c #FEF0B9",
"c@	c #FFFDF4",
"d@	c #FDDB5D",
"e@	c #FEE893",
"f@	c #F9EBA8",
"g@	c #FCDE55",
"h@	c #FCDD53",
"i@	c #FCDB50",
"j@	c #FDDA4B",
"k@	c #FDD743",
"l@	c #FDD53F",
"m@	c #FEECAA",
"n@	c #FEF4CE",
"o@	c #FFDD60",
"p@	c #F5E3A0",
"q@	c #D3D0C5",
"r@	c #FAE89B",
"s@	c #FFDF59",
"t@	c #FDD840",
"u@	c #FDD63E",
"v@	c #FDD339",
"w@	c #FDD43A",
"x@	c #FFDD5E",
"y@	c #F9E188",
"z@	c #D2CCB4",
"A@	c #DED4AE",
"B@	c #F7E6A5",
"C@	c #FFE889",
"D@	c #FFE170",
"E@	c #FFE16F",
"F@	c #FFE684",
"G@	c #F9E6A0",
"H@	c #DFD3A8",
"                                                                ",
"                                                                ",
"                                                                ",
"                                                                ",
"                      . + @ # $ % & * = -                       ",
"                    ; > , ' ) ! ~ { ] ^ / (                     ",
"                    _ : < [ } ~ | 1 2 3 4 5                     ",
"                    6 7 8 9 0 a b c 3 d e f                     ",
"                    g h i j k l m n d o p q                     ",
"                  r s t u v w x y z A B C D E                   ",
"            F G H I J K % L M N 3 A B O P Q R S T U V           ",
"          W X Y Z ) ` ~ {  ...+.A B O @.#.$.%.&.*.=.-.          ",
"        ;.>.,.'.).!.~ | ~.m {.].^./.(._.:.<.[.}.|.1.2.3.        ",
"        4.5.'.6.7.8.9.1 m 0.a.b./.c.d.d.e.f.g.h.1.i.j.k.        ",
"        l.m.n.o.p.9.q.r.s.t.e u.v.#.w.e.x.y.z.A.B.C.D.E.        ",
"        F.G.} H.I.b J.K.L.M.N.O.P.Q.R.S.T.U.V.W.X.Y.Z.`.        ",
"         +.+++@+#+$+%+&+*+=+-+;+>+,+'+)+!+~+{+]+^+/+(+_+        ",
"        :+7.~ b <+[+}+|+1+1+1+2+}.|.3+4+5+6+7+8+9+0+a+b+        ",
"        c+++d+e+f+g+h+1+1+1+i+j+k+l+~+{+m+n+o+p+q+r+s+t+        ",
"        u+v+e+m w+x+y+1+&.z+A+B+C+B.C.D+E+9+F+G+H+I+J+K+        ",
"          L+M+N+O+P+Q+i+}.R+S+V.T+U+V+W+X+Y+a+Z+`+ @.@          ",
"            +@@@#@$@%@j+h.&@B.*@=@-@;@>@,@'@)@!@!@~@{@          ",
"                    ]@^@4+/@6+(@_@:@<@[@}@|@                    ",
"                    1@i.{+2@n+3@W+4@5@6@7@8@                    ",
"                    9@C.D+E+/+F+0@a@b@c@d@e@                    ",
"                    f@g@h@i@j@6@k@l@m@n@o@p@                    ",
"                    q@r@s@t@u@Z+v@7@w@x@y@z@                    ",
"                        A@B@C@D@E@F@G@H@                        ",
"                                                                ",
"                                                                ",
"                                                                ",
"                                                                "};
