/* XPM */
static char * Ruby_xpm[] = {
"16 16 210 2",
"  	c #FFFFFF",
". 	c #F9E4E2",
"+ 	c #EEAAA7",
"@ 	c #F3BEBB",
"# 	c #E9A9A4",
"$ 	c #D96157",
"% 	c #CF534C",
"& 	c #BB534F",
"* 	c #D3A7A7",
"= 	c #F7E5E4",
"- 	c #CC534C",
"; 	c #BF0600",
"> 	c #CC1A01",
", 	c #D10C00",
"' 	c #F0AAA6",
") 	c #B6251C",
"! 	c #AD1103",
"~ 	c #991007",
"{ 	c #861006",
"] 	c #C8A19F",
"^ 	c #E7BBBA",
"/ 	c #AA0200",
"( 	c #B41301",
"_ 	c #BC1603",
": 	c #C31903",
"< 	c #CC1B03",
"[ 	c #EA958F",
"} 	c #F7D5CD",
"| 	c #A0120B",
"1 	c #9F120B",
"2 	c #99120B",
"3 	c #850B05",
"4 	c #DDA5A1",
"5 	c #AB1200",
"6 	c #AF1401",
"7 	c #B11301",
"8 	c #B41401",
"9 	c #C00A00",
"0 	c #DE6751",
"a 	c #D0331B",
"b 	c #CC2813",
"c 	c #A01C14",
"d 	c #8A130C",
"e 	c #770D09",
"f 	c #E2B8B4",
"g 	c #A71300",
"h 	c #A91501",
"i 	c #AC1401",
"j 	c #B21301",
"k 	c #CC564D",
"l 	c #C53429",
"m 	c #BC1B09",
"n 	c #B81807",
"o 	c #B41505",
"p 	c #9F1D13",
"q 	c #780E09",
"r 	c #F2E2E1",
"s 	c #950500",
"t 	c #A41601",
"u 	c #A71501",
"v 	c #AE1401",
"w 	c #A90100",
"x 	c #E5B5AF",
"y 	c #A30900",
"z 	c #A40E02",
"A 	c #A11409",
"B 	c #950D03",
"C 	c #8B1209",
"D 	c #961817",
"E 	c #A54D47",
"F 	c #931201",
"G 	c #9E1501",
"H 	c #A90E00",
"I 	c #E8BCBA",
"J 	c #FCE1D6",
"K 	c #970000",
"L 	c #A50D01",
"M 	c #9F0D02",
"N 	c #950D04",
"O 	c #8A0D06",
"P 	c #AA3A3A",
"Q 	c #F9ECEA",
"R 	c #8B0000",
"S 	c #870D01",
"T 	c #931101",
"U 	c #9D1401",
"V 	c #A20B00",
"W 	c #E0988D",
"X 	c #DF6343",
"Y 	c #E16645",
"Z 	c #A71C10",
"` 	c #970E02",
" .	c #930E04",
"..	c #920E04",
"+.	c #8D0903",
"@.	c #B95C5C",
"#.	c #F4D3CE",
"$.	c #C22B18",
"%.	c #941609",
"&.	c #860D01",
"*.	c #910200",
"=.	c #D47774",
"-.	c #C52615",
";.	c #C32616",
">.	c #C22313",
",.	c #AA1A0E",
"'.	c #8D0F06",
").	c #871008",
"!.	c #9A0000",
"~.	c #CE8383",
"{.	c #F7D1CA",
"].	c #DD7E73",
"^.	c #C22917",
"/.	c #900300",
"(.	c #B97774",
"_.	c #D37C79",
":.	c #B60F03",
"<.	c #B61508",
"[.	c #B51508",
"}.	c #B51407",
"|.	c #AC180C",
"1.	c #8C0D04",
"2.	c #8C1207",
"3.	c #E1AEAD",
"4.	c #DF5A47",
"5.	c #F6DFDD",
"6.	c #F4CFC8",
"7.	c #FADED6",
"8.	c #F8D0C2",
"9.	c #9A0602",
"0.	c #9D0F05",
"a.	c #A21004",
"b.	c #A71004",
"c.	c #AC0D01",
"d.	c #AB1003",
"e.	c #85110A",
"f.	c #8B1108",
"g.	c #8C1206",
"h.	c #A40A05",
"i.	c #F1D0CF",
"j.	c #C94E42",
"k.	c #BB271D",
"l.	c #E67153",
"m.	c #E46444",
"n.	c #DE573A",
"o.	c #A20D0A",
"p.	c #A00C01",
"q.	c #9A0D03",
"r.	c #910D03",
"s.	c #8D1008",
"t.	c #971006",
"u.	c #8E1007",
"v.	c #8E1206",
"w.	c #8B1105",
"x.	c #9E1105",
"y.	c #FCF1F0",
"z.	c #AF3731",
"A.	c #A90F0B",
"B.	c #E03E23",
"C.	c #DA351C",
"D.	c #B61D18",
"E.	c #A00D07",
"F.	c #9A0C01",
"G.	c #980D03",
"H.	c #930D04",
"I.	c #9D0B06",
"J.	c #B40E0A",
"K.	c #931307",
"L.	c #8A1104",
"M.	c #931204",
"N.	c #B74E49",
"O.	c #A2100B",
"P.	c #AD170F",
"Q.	c #C11C12",
"R.	c #A40C0D",
"S.	c #9E0C05",
"T.	c #960C00",
"U.	c #940D04",
"V.	c #900D05",
"W.	c #AC0D09",
"X.	c #B9130D",
"Y.	c #C21711",
"Z.	c #D01E16",
"`.	c #9C1608",
" +	c #881305",
".+	c #DDAEAD",
"++	c #960F08",
"@+	c #97160E",
"#+	c #AA0405",
"$+	c #A40D0A",
"%+	c #9C0C01",
"&+	c #950B00",
"*+	c #8E0D04",
"=+	c #A10F08",
"-+	c #AC120B",
";+	c #BB170E",
">+	c #CA1D13",
",+	c #D9261B",
"'+	c #E93124",
")+	c #B4291E",
"!+	c #E7CCCC",
"~+	c #98362F",
"{+	c #A9201F",
"]+	c #A62624",
"^+	c #A94B49",
"/+	c #B75F5D",
"(+	c #CD8E8A",
"_+	c #DBAAA6",
":+	c #E9CBC8",
"<+	c #F5E2E1",
"              . + @ # $ % & *   ",
"          = - ; > , ' ) ! ~ { ] ",
"        ^ / ( _ : < [ } | 1 2 3 ",
"      4 5 6 7 8 _ 9 0 a b c d e ",
"    f g h i 6 7 j k l m n o p q ",
"  r s t u h i v w x y z A B C D ",
"  E F G t u h H I J K L M N O P ",
"Q R S T U t V W X Y Z `  ...+.@.",
"#.$.%.&.T *.=.-.;.>.,...'.).!.~.",
"{.].^./.(._.:.<.[.}.|.1.).2.!.3.",
"4.5.6.7.8.9.0.a.b.c.d.e.f.g.h.i.",
"j.k.l.m.n.o.p.q.r.s.t.u.v.w.x.y.",
"z.A.B.C.D.E.F.G.H.O I.J.K.L.M.  ",
"N.O.P.Q.R.S.T.U.V.W.X.Y.Z.`. +  ",
".+++@+#+$+%+&+*+=+-+;+>+,+'+)+  ",
"  !+~+{+]+^+/+(+_+:+<+          "};
