/* XPM */
static char * Ruby_xpm[] = {
"16 16 180 2",
"  	c None",
". 	c #D96157",
"+ 	c #CF534C",
"@ 	c #BB534F",
"# 	c #CC534C",
"$ 	c #BF0600",
"% 	c #CC1A01",
"& 	c #D10C00",
"* 	c #B6251C",
"= 	c #AD1103",
"- 	c #991007",
"; 	c #861006",
"> 	c #C8A19F",
", 	c #AA0200",
"' 	c #B41301",
") 	c #BC1603",
"! 	c #C31903",
"~ 	c #CC1B03",
"{ 	c #EA958F",
"] 	c #A0120B",
"^ 	c #9F120B",
"/ 	c #99120B",
"( 	c #850B05",
"_ 	c #AB1200",
": 	c #AF1401",
"< 	c #B11301",
"[ 	c #B41401",
"} 	c #C00A00",
"| 	c #DE6751",
"1 	c #D0331B",
"2 	c #CC2813",
"3 	c #A01C14",
"4 	c #8A130C",
"5 	c #770D09",
"6 	c #A71300",
"7 	c #A91501",
"8 	c #AC1401",
"9 	c #B21301",
"0 	c #CC564D",
"a 	c #C53429",
"b 	c #BC1B09",
"c 	c #B81807",
"d 	c #B41505",
"e 	c #9F1D13",
"f 	c #780E09",
"g 	c #950500",
"h 	c #A41601",
"i 	c #A71501",
"j 	c #AE1401",
"k 	c #A90100",
"l 	c #A30900",
"m 	c #A40E02",
"n 	c #A11409",
"o 	c #950D03",
"p 	c #8B1209",
"q 	c #961817",
"r 	c #A54D47",
"s 	c #931201",
"t 	c #9E1501",
"u 	c #A90E00",
"v 	c #970000",
"w 	c #A50D01",
"x 	c #9F0D02",
"y 	c #950D04",
"z 	c #8A0D06",
"A 	c #AA3A3A",
"B 	c #8B0000",
"C 	c #870D01",
"D 	c #931101",
"E 	c #9D1401",
"F 	c #A20B00",
"G 	c #E0988D",
"H 	c #DF6343",
"I 	c #E16645",
"J 	c #A71C10",
"K 	c #970E02",
"L 	c #930E04",
"M 	c #920E04",
"N 	c #8D0903",
"O 	c #B95C5C",
"P 	c #C22B18",
"Q 	c #941609",
"R 	c #860D01",
"S 	c #910200",
"T 	c #D47774",
"U 	c #C52615",
"V 	c #C32616",
"W 	c #C22313",
"X 	c #AA1A0E",
"Y 	c #8D0F06",
"Z 	c #871008",
"` 	c #9A0000",
" .	c #CE8383",
"..	c #DD7E73",
"+.	c #C22917",
"@.	c #900300",
"#.	c #B97774",
"$.	c #D37C79",
"%.	c #B60F03",
"&.	c #B61508",
"*.	c #B51508",
"=.	c #B51407",
"-.	c #AC180C",
";.	c #8C0D04",
">.	c #8C1207",
",.	c #DF5A47",
"'.	c #9A0602",
").	c #9D0F05",
"!.	c #A21004",
"~.	c #A71004",
"{.	c #AC0D01",
"].	c #AB1003",
"^.	c #85110A",
"/.	c #8B1108",
"(.	c #8C1206",
"_.	c #A40A05",
":.	c #C94E42",
"<.	c #BB271D",
"[.	c #E67153",
"}.	c #E46444",
"|.	c #DE573A",
"1.	c #A20D0A",
"2.	c #A00C01",
"3.	c #9A0D03",
"4.	c #910D03",
"5.	c #8D1008",
"6.	c #971006",
"7.	c #8E1007",
"8.	c #8E1206",
"9.	c #8B1105",
"0.	c #9E1105",
"a.	c #AF3731",
"b.	c #A90F0B",
"c.	c #E03E23",
"d.	c #DA351C",
"e.	c #B61D18",
"f.	c #A00D07",
"g.	c #9A0C01",
"h.	c #980D03",
"i.	c #930D04",
"j.	c #9D0B06",
"k.	c #B40E0A",
"l.	c #931307",
"m.	c #8A1104",
"n.	c #931204",
"o.	c #B74E49",
"p.	c #A2100B",
"q.	c #AD170F",
"r.	c #C11C12",
"s.	c #A40C0D",
"t.	c #9E0C05",
"u.	c #960C00",
"v.	c #940D04",
"w.	c #900D05",
"x.	c #AC0D09",
"y.	c #B9130D",
"z.	c #C21711",
"A.	c #D01E16",
"B.	c #9C1608",
"C.	c #881305",
"D.	c #960F08",
"E.	c #97160E",
"F.	c #AA0405",
"G.	c #A40D0A",
"H.	c #9C0C01",
"I.	c #950B00",
"J.	c #8E0D04",
"K.	c #A10F08",
"L.	c #AC120B",
"M.	c #BB170E",
"N.	c #CA1D13",
"O.	c #D9261B",
"P.	c #E93124",
"Q.	c #B4291E",
"R.	c #98362F",
"S.	c #A9201F",
"T.	c #A62624",
"U.	c #A94B49",
"V.	c #B75F5D",
"W.	c #CD8E8A",
"                      . + @     ",
"            # $ % &   * = - ; > ",
"          , ' ) ! ~ {   ] ^ / ( ",
"        _ : < [ ) } | 1 2 3 4 5 ",
"      6 7 8 : < 9 0 a b c d e f ",
"    g h i 7 8 j k   l m n o p q ",
"  r s t h i 7 u     v w x y z A ",
"  B C D E h F G H I J K L M N O ",
"  P Q R D S T U V W X M Y Z `  .",
"  ..+.@.#.$.%.&.*.=.-.;.Z >.`   ",
",.        '.).!.~.{.].^./.(._.  ",
":.<.[.}.|.1.2.3.4.5.6.7.8.9.0.  ",
"a.b.c.d.e.f.g.h.i.z j.k.l.m.n.  ",
"o.p.q.r.s.t.u.v.w.x.y.z.A.B.C.  ",
"  D.E.F.G.H.I.J.K.L.M.N.O.P.Q.  ",
"    R.S.T.U.V.W.                "};
