/* XPM */
static char * Todo_xpm[] = {
"16 16 28 1",
" 	c None",
".	c #000000",
"+	c #000300",
"@	c #00BC00",
"#	c #00F400",
"$	c #006D00",
"%	c #00FC00",
"&	c #00EE00",
"*	c #00F300",
"=	c #00F000",
"-	c #000D00",
";	c #00E300",
">	c #000100",
",	c #005B00",
"'	c #00FB00",
")	c #003700",
"!	c #008300",
"~	c #003300",
"{	c #00EF00",
"]	c #004300",
"^	c #00FD00",
"/	c #00ED00",
"(	c #00EC00",
"_	c #008C00",
":	c #00E500",
"<	c #003A00",
"[	c #009900",
"}	c #005300",
"  ..........    ",
" ............   ",
"..         .+@# ",
"..          $%&&",
"..          *&&&",
"..         &&&& ",
"..        &&&=  ",
".-       &&&;   ",
">,'     &&&&)   ",
")%&&    &&*!.   ",
"~#{&&  &&&  .   ",
".]^&&&&&&&  .   ",
".. &&&&&&   .   ",
"..  /&&(   ..   ",
" ..._(:<.....   ",
"  ...[}....     "};
