/* XPM */
static char * todo_xpm[] = {
"16 16 118 2",
"  	c None",
". 	c #FFFFFF",
"+ 	c #DCDCDC",
"@ 	c #9A9A9A",
"# 	c #757575",
"$ 	c #6F6F6F",
"% 	c #727272",
"& 	c #717171",
"* 	c #6E6E6E",
"= 	c #7A7A7A",
"- 	c #B0B0B0",
"; 	c #FBFBFB",
"> 	c #FDFDFD",
", 	c #C8C8C8",
"' 	c #363636",
") 	c #252525",
"! 	c #343434",
"~ 	c #373737",
"{ 	c #323232",
"] 	c #7D7D7D",
"^ 	c #ECECEC",
"/ 	c #A9A9A9",
"( 	c #4E4E4E",
"_ 	c #393939",
": 	c #9F9F9F",
"< 	c #CECECE",
"[ 	c #C6C6C6",
"} 	c #D0D0D0",
"| 	c #959595",
"1 	c #212121",
"2 	c #0B0B0B",
"3 	c #EEEEEE",
"4 	c #F8F8F8",
"5 	c #9B9B9B",
"6 	c #000000",
"7 	c #979797",
"8 	c #F2F2F2",
"9 	c #EBEBEB",
"0 	c #909090",
"a 	c #242424",
"b 	c #010101",
"c 	c #939393",
"d 	c #F1F1F1",
"e 	c #D6D6D6",
"f 	c #8E8E8E",
"g 	c #929292",
"h 	c #EFEFEF",
"i 	c #8D8D8D",
"j 	c #030303",
"k 	c #969696",
"l 	c #E1E1E1",
"m 	c #7E7E7E",
"n 	c #050505",
"o 	c #111111",
"p 	c #8F8F8F",
"q 	c #F6F6F6",
"r 	c #1C1C1C",
"s 	c #0A0A0A",
"t 	c #3F3F3F",
"u 	c #B5B5B5",
"v 	c #424242",
"w 	c #101010",
"x 	c #A1A1A1",
"y 	c #F9F9F9",
"z 	c #8C8C8C",
"A 	c #171717",
"B 	c #040404",
"C 	c #404040",
"D 	c #EDEDED",
"E 	c #E3E3E3",
"F 	c #0E0E0E",
"G 	c #090909",
"H 	c #595959",
"I 	c #121212",
"J 	c #4B4B4B",
"K 	c #606060",
"L 	c #B9B9B9",
"M 	c #898989",
"N 	c #A2A2A2",
"O 	c #F0F0F0",
"P 	c #D4D4D4",
"Q 	c #6B6B6B",
"R 	c #060606",
"S 	c #020202",
"T 	c #555555",
"U 	c #D2D2D2",
"V 	c #2E2E2E",
"W 	c #636363",
"X 	c #545454",
"Y 	c #C1C1C1",
"Z 	c #C0C0C0",
"` 	c #1A1A1A",
" .	c #888888",
"..	c #626262",
"+.	c #262626",
"@.	c #C5C5C5",
"#.	c #C4C4C4",
"$.	c #1F1F1F",
"%.	c #CFCFCF",
"&.	c #F7F7F7",
"*.	c #F3F3F3",
"=.	c #F5F5F5",
"-.	c #F4F4F4",
";.	c #D1D1D1",
">.	c #848484",
",.	c #C7C7C7",
"'.	c #9C9C9C",
").	c #181818",
"!.	c #ACACAC",
"~.	c #7B7B7B",
"{.	c #9E9E9E",
"].	c #A0A0A0",
"^.	c #9D9D9D",
"/.	c #A5A5A5",
"(.	c #A3A3A3",
"_.	c #3D3D3D",
":.	c #E7E7E7",
"<.	c #454545",
". + @ # $ % & & & & % * = - ; > ",
", ' ) ! ~ ' ' ' ' ' ~ { ' ] ^ / ",
"( _ : < , , , , , , , [ } } | 1 ",
"2 = 3 . . . . . . . . . 4 5 ) 6 ",
"6 7 8 . 3 3 . . . . . 9 0 a 6 6 ",
"b c d e f g 3 . . . h i 1 6 6 j ",
"b k l m n o p 4 . q i r 6 6 s t ",
"b 7 u v 6 6 w x y z A 6 6 B C D ",
"b k E m F 6 6 G H I 6 6 6 J E . ",
"b c 8 l & G 6 6 G 6 6 6 K L M N ",
"b g O . P Q R 6 6 6 S T U , V M ",
"6 | O . . } W j 6 6 X Y . Z `  .",
"6 g 8 . . . P ..+.H @.. . #.1 i ",
"$.W %.&.*.=.-.;.>.,.8 y *.'.).!.",
"~.) Q {.].^.{./.k (.].(.>._.! :.",
"d & ).6 6 6 6 6 6 6 6 6 n <.Y . "};
